<mxfile host="app.diagrams.net" modified="2021-01-30T23:04:08.113Z" agent="5.0 (Windows NT 10.0; Win64; x64) AppleWebKit/537.36 (KHTML, like Gecko) Chrome/88.0.4324.104 Safari/537.36" etag="clc9FEQg_w2f49itcgcp" version="14.2.9" type="github" pages="2">
  <diagram id="C5RBs43oDa-KdzZeNtuy" name="Page-1">
    <mxGraphModel dx="5987" dy="2867" grid="1" gridSize="10" guides="1" tooltips="1" connect="1" arrows="1" fold="1" page="1" pageScale="1" pageWidth="827" pageHeight="1169" math="0" shadow="0">
      <root>
        <mxCell id="WIyWlLk6GJQsqaUBKTNV-0" />
        <mxCell id="WIyWlLk6GJQsqaUBKTNV-1" parent="WIyWlLk6GJQsqaUBKTNV-0" />
        <mxCell id="nlNDux-O980dPvv7nzlG-14" value="لا" style="edgeStyle=orthogonalEdgeStyle;rounded=0;orthogonalLoop=1;jettySize=auto;html=1;" edge="1" parent="WIyWlLk6GJQsqaUBKTNV-1" source="nlNDux-O980dPvv7nzlG-7" target="nlNDux-O980dPvv7nzlG-15">
          <mxGeometry relative="1" as="geometry">
            <mxPoint x="235" y="890" as="targetPoint" />
          </mxGeometry>
        </mxCell>
        <mxCell id="WIyWlLk6GJQsqaUBKTNV-3" value="رسالة الترحيب الافتتاحية (الغرض) + رسالة اخلاء المسئولية" style="rounded=1;whiteSpace=wrap;html=1;fontSize=12;glass=0;strokeWidth=1;shadow=0;" parent="WIyWlLk6GJQsqaUBKTNV-1" vertex="1">
          <mxGeometry x="160" y="80" width="150" height="50" as="geometry" />
        </mxCell>
        <mxCell id="nlNDux-O980dPvv7nzlG-1" value="" style="endArrow=classic;html=1;exitX=0.5;exitY=1;exitDx=0;exitDy=0;" edge="1" parent="WIyWlLk6GJQsqaUBKTNV-1" source="WIyWlLk6GJQsqaUBKTNV-3" target="nlNDux-O980dPvv7nzlG-2">
          <mxGeometry width="50" height="50" relative="1" as="geometry">
            <mxPoint x="390" y="320" as="sourcePoint" />
            <mxPoint x="240" y="180" as="targetPoint" />
          </mxGeometry>
        </mxCell>
        <mxCell id="nlNDux-O980dPvv7nzlG-4" style="edgeStyle=orthogonalEdgeStyle;rounded=0;orthogonalLoop=1;jettySize=auto;html=1;" edge="1" parent="WIyWlLk6GJQsqaUBKTNV-1" source="nlNDux-O980dPvv7nzlG-2" target="nlNDux-O980dPvv7nzlG-5">
          <mxGeometry relative="1" as="geometry">
            <mxPoint x="235" y="340" as="targetPoint" />
          </mxGeometry>
        </mxCell>
        <mxCell id="nlNDux-O980dPvv7nzlG-2" value="&lt;span style=&quot;font-size: 12px&quot;&gt;اتصل بالرقم 911 إذا كان لديك أي أعراض شديدة أو مهددة للحياة ، بما في ذلك ألم أو ضغط مستمر في الصدر ، أو صعوبة شديدة في التنفس أو ضيق شديد في التنفس ، أو دوخة أو دوخة شديدة ، أو تداخل في الكلام&amp;nbsp;&lt;/span&gt;" style="rounded=0;whiteSpace=wrap;html=1;" vertex="1" parent="WIyWlLk6GJQsqaUBKTNV-1">
          <mxGeometry x="91.5" y="190" width="287" height="90" as="geometry" />
        </mxCell>
        <mxCell id="nlNDux-O980dPvv7nzlG-5" value="ما هو عمرك؟" style="rounded=0;whiteSpace=wrap;html=1;" vertex="1" parent="WIyWlLk6GJQsqaUBKTNV-1">
          <mxGeometry x="177.5" y="310" width="115" height="30" as="geometry" />
        </mxCell>
        <mxCell id="nlNDux-O980dPvv7nzlG-12" value="نعم" style="edgeStyle=orthogonalEdgeStyle;rounded=0;orthogonalLoop=1;jettySize=auto;html=1;" edge="1" parent="WIyWlLk6GJQsqaUBKTNV-1" source="nlNDux-O980dPvv7nzlG-7" target="nlNDux-O980dPvv7nzlG-13">
          <mxGeometry relative="1" as="geometry">
            <mxPoint x="510" y="655" as="targetPoint" />
          </mxGeometry>
        </mxCell>
        <mxCell id="nlNDux-O980dPvv7nzlG-7" value="&lt;p class=&quot;MsoListParagraphCxSpFirst&quot; dir=&quot;RTL&quot; style=&quot;text-indent: -18.0pt&quot;&gt;&lt;/p&gt;&lt;span style=&quot;font-family: &amp;#34;times new roman&amp;#34; , serif ; text-indent: -18pt ; font-size: 14pt&quot;&gt;هل تعانى من اى عرض من تلك الاعراض ؟ &lt;br&gt;صعوبة او ضيق فى التنفس&lt;/span&gt;&lt;span style=&quot;font-family: &amp;#34;times new roman&amp;#34; ; text-indent: -18pt ; font-size: 7pt&quot;&gt;&lt;br&gt;&lt;/span&gt;&lt;span style=&quot;font-family: &amp;#34;times new roman&amp;#34; ; text-indent: -18pt ; font-size: 7pt&quot;&gt;&amp;nbsp; &amp;nbsp; &amp;nbsp;&amp;nbsp;&lt;/span&gt;&lt;span style=&quot;font-family: &amp;#34;times new roman&amp;#34; , serif ; text-indent: -18pt ; font-size: 14pt&quot;&gt;الم او ضغظ فى الصدر&lt;/span&gt;&lt;span style=&quot;font-family: &amp;#34;times new roman&amp;#34; ; text-indent: -18pt ; font-size: 7pt&quot;&gt;&lt;br&gt;&lt;/span&gt;&lt;span style=&quot;font-family: &amp;#34;times new roman&amp;#34; ; text-indent: -18pt ; font-size: 7pt&quot;&gt;&amp;nbsp; &amp;nbsp;&amp;nbsp;&lt;/span&gt;&lt;span style=&quot;font-family: &amp;#34;times new roman&amp;#34; , serif ; text-indent: -18pt ; font-size: 14pt&quot;&gt;فقدان القدرة على الحركة او النطق&lt;/span&gt;&lt;span style=&quot;font-family: &amp;#34;times new roman&amp;#34; ; text-indent: -18pt ; font-size: 7pt&quot;&gt;&lt;br&gt;&lt;/span&gt;&lt;span style=&quot;text-indent: -18pt ; font-stretch: normal ; line-height: normal ; font-family: &amp;#34;times new roman&amp;#34; ; font-size: 7pt&quot;&gt;&amp;nbsp; &amp;nbsp; &amp;nbsp;&amp;nbsp;&lt;span style=&quot;font-family: &amp;#34;times new roman&amp;#34; , serif ; text-indent: -18pt ; font-size: 14pt&quot;&gt;ارتفاع درجة الحرارة اكثر من 39.5 درجة مئوية&lt;/span&gt;&lt;br&gt;&lt;/span&gt;&lt;p class=&quot;MsoListParagraphCxSpMiddle&quot; dir=&quot;RTL&quot; style=&quot;margin-bottom: 0cm ; margin-bottom: 0.0001pt ; text-indent: -18.0pt ; line-height: normal&quot;&gt;&lt;span dir=&quot;LTR&quot; style=&quot;font-family: &amp;#34;times new roman&amp;#34; , serif ; font-size: 14pt&quot;&gt;&lt;/span&gt;&lt;/p&gt;&lt;span style=&quot;font-family: &amp;#34;times new roman&amp;#34; , serif ; text-indent: -18pt ; font-size: 14pt&quot;&gt;شلل جزئى&lt;/span&gt;&lt;br&gt;&lt;p class=&quot;MsoListParagraphCxSpMiddle&quot; dir=&quot;RTL&quot; style=&quot;margin-bottom: 0cm ; margin-bottom: 0.0001pt ; text-indent: -18.0pt ; line-height: normal&quot;&gt;&lt;span dir=&quot;RTL&quot;&gt;&lt;/span&gt;&lt;span lang=&quot;AR-EG&quot; style=&quot;font-family: &amp;#34;times new roman&amp;#34; , serif ; font-size: 14pt&quot;&gt;تشنجات&amp;nbsp;&lt;/span&gt;&lt;span style=&quot;font-family: &amp;#34;times new roman&amp;#34; , serif ; text-indent: -18pt ; font-size: 14pt&quot;&gt;نزيف شرجى&lt;/span&gt;&lt;/p&gt;&lt;br&gt;&lt;span style=&quot;text-indent: -18pt ; line-height: 107% ; font-family: &amp;#34;symbol&amp;#34; ; font-size: 14pt&quot;&gt;&lt;span style=&quot;font-stretch: normal ; line-height: normal ; font-family: &amp;#34;times new roman&amp;#34; ; font-size: 7pt&quot;&gt;&amp;nbsp; &amp;nbsp; &amp;nbsp; &amp;nbsp;&lt;/span&gt;&lt;/span&gt;&lt;span dir=&quot;RTL&quot; style=&quot;text-indent: -18pt&quot;&gt;&lt;/span&gt;&lt;span lang=&quot;AR-EG&quot; style=&quot;text-indent: -18pt ; line-height: 107% ; font-family: &amp;#34;times new roman&amp;#34; , serif ; font-size: 14pt&quot;&gt;فاقد للوعي&lt;/span&gt;&lt;br&gt;&lt;p class=&quot;MsoListParagraphCxSpMiddle&quot; dir=&quot;RTL&quot; style=&quot;text-indent: -18.0pt&quot;&gt;&lt;span lang=&quot;AR-EG&quot; style=&quot;line-height: 107% ; font-family: &amp;#34;times new roman&amp;#34; , serif ; font-size: 14pt&quot;&gt;أو من الصعب جدًا الاستيقاظ&lt;/span&gt;&lt;span dir=&quot;LTR&quot; style=&quot;line-height: 107% ; font-family: &amp;#34;times new roman&amp;#34; , serif ; font-size: 14pt&quot;&gt;&lt;/span&gt;&lt;/p&gt;&lt;span style=&quot;text-indent: -18pt ; line-height: 107% ; font-family: &amp;#34;symbol&amp;#34; ; font-size: 14pt&quot;&gt;&lt;span style=&quot;font-stretch: normal ; line-height: normal ; font-family: &amp;#34;times new roman&amp;#34; ; font-size: 7pt&quot;&gt;&amp;nbsp; &amp;nbsp; &amp;nbsp;&amp;nbsp;&lt;/span&gt;&lt;/span&gt;&lt;span dir=&quot;RTL&quot; style=&quot;text-indent: -18pt&quot;&gt;&lt;/span&gt;&lt;span lang=&quot;AR-EG&quot; style=&quot;text-indent: -18pt ; line-height: 107% ; font-family: &amp;#34;times new roman&amp;#34; , serif ; font-size: 14pt&quot;&gt;لا يوجد اى&amp;nbsp;&lt;span style=&quot;font-size: 14pt ; text-indent: -18pt&quot;&gt;من تلك الاعراض&lt;/span&gt;&lt;br&gt;&lt;/span&gt;&lt;p class=&quot;MsoListParagraphCxSpLast&quot; dir=&quot;RTL&quot; style=&quot;text-indent: -18.0pt&quot;&gt;&lt;span dir=&quot;LTR&quot; style=&quot;font-size: 14.0pt ; line-height: 107% ; font-family: &amp;#34;times new roman&amp;#34; , serif&quot;&gt;&lt;/span&gt;&lt;/p&gt;" style="rounded=0;whiteSpace=wrap;html=1;" vertex="1" parent="WIyWlLk6GJQsqaUBKTNV-1">
          <mxGeometry x="75" y="490" width="320" height="330" as="geometry" />
        </mxCell>
        <mxCell id="nlNDux-O980dPvv7nzlG-11" style="edgeStyle=orthogonalEdgeStyle;rounded=0;orthogonalLoop=1;jettySize=auto;html=1;entryX=0.5;entryY=0;entryDx=0;entryDy=0;" edge="1" parent="WIyWlLk6GJQsqaUBKTNV-1" source="nlNDux-O980dPvv7nzlG-8" target="nlNDux-O980dPvv7nzlG-7">
          <mxGeometry relative="1" as="geometry" />
        </mxCell>
        <mxCell id="nlNDux-O980dPvv7nzlG-8" value="ما هو جنسك؟" style="rounded=0;whiteSpace=wrap;html=1;" vertex="1" parent="WIyWlLk6GJQsqaUBKTNV-1">
          <mxGeometry x="175" y="380" width="120" height="60" as="geometry" />
        </mxCell>
        <mxCell id="nlNDux-O980dPvv7nzlG-10" value="" style="endArrow=classic;html=1;exitX=0.5;exitY=1;exitDx=0;exitDy=0;entryX=0.5;entryY=0;entryDx=0;entryDy=0;" edge="1" parent="WIyWlLk6GJQsqaUBKTNV-1" source="nlNDux-O980dPvv7nzlG-5" target="nlNDux-O980dPvv7nzlG-8">
          <mxGeometry width="50" height="50" relative="1" as="geometry">
            <mxPoint x="390" y="400" as="sourcePoint" />
            <mxPoint x="440" y="350" as="targetPoint" />
          </mxGeometry>
        </mxCell>
        <mxCell id="nlNDux-O980dPvv7nzlG-13" value="نعرض رسالة الخطر لو اختار اى عرض من&amp;nbsp; &amp;nbsp;دول" style="rounded=0;whiteSpace=wrap;html=1;" vertex="1" parent="WIyWlLk6GJQsqaUBKTNV-1">
          <mxGeometry x="450" y="625" width="120" height="60" as="geometry" />
        </mxCell>
        <mxCell id="nlNDux-O980dPvv7nzlG-17" style="edgeStyle=orthogonalEdgeStyle;rounded=0;orthogonalLoop=1;jettySize=auto;html=1;" edge="1" parent="WIyWlLk6GJQsqaUBKTNV-1" source="nlNDux-O980dPvv7nzlG-15" target="nlNDux-O980dPvv7nzlG-18">
          <mxGeometry relative="1" as="geometry">
            <mxPoint x="235" y="1010" as="targetPoint" />
          </mxGeometry>
        </mxCell>
        <mxCell id="nlNDux-O980dPvv7nzlG-15" value="اختر الاعراض التى تعانى منها ويستبعد الشكاوى &lt;br&gt;المزمنة او الموسمية؟&lt;br&gt;سعال جاف , حمى , ارهاق وتعب , فقدان القدرة على التذوق او الشم , اسهال , غثيان , لا يوجد اى من تلك الاعراض" style="rounded=0;whiteSpace=wrap;html=1;" vertex="1" parent="WIyWlLk6GJQsqaUBKTNV-1">
          <mxGeometry x="85" y="880" width="300" height="80" as="geometry" />
        </mxCell>
        <mxCell id="mAFuOGpr3jhFEgYjjZ75-0" style="edgeStyle=orthogonalEdgeStyle;rounded=0;orthogonalLoop=1;jettySize=auto;html=1;" edge="1" parent="WIyWlLk6GJQsqaUBKTNV-1" source="nlNDux-O980dPvv7nzlG-18" target="mAFuOGpr3jhFEgYjjZ75-1">
          <mxGeometry relative="1" as="geometry">
            <mxPoint x="235.0050000000001" y="1180" as="targetPoint" />
          </mxGeometry>
        </mxCell>
        <mxCell id="nlNDux-O980dPvv7nzlG-18" value="اختر الاعرض التى تعانى منها او تشعر بها الان ويستبعد الشكاوى &lt;br&gt;المزمنة او الموسمية؟&lt;br&gt;التهاب الحلق , صداع , طفح جلدى .دوخة , القئ , عطس , سيلان الانف , حمى طفيفة , لايوجد اى من تلك الاعراض&amp;nbsp;" style="rounded=0;whiteSpace=wrap;html=1;" vertex="1" parent="WIyWlLk6GJQsqaUBKTNV-1">
          <mxGeometry x="109.38" y="1000" width="251.25" height="110" as="geometry" />
        </mxCell>
        <mxCell id="mAFuOGpr3jhFEgYjjZ75-2" style="edgeStyle=orthogonalEdgeStyle;rounded=0;orthogonalLoop=1;jettySize=auto;html=1;" edge="1" parent="WIyWlLk6GJQsqaUBKTNV-1" source="mAFuOGpr3jhFEgYjjZ75-1" target="mAFuOGpr3jhFEgYjjZ75-3">
          <mxGeometry relative="1" as="geometry">
            <mxPoint x="234.9949999999999" y="1300" as="targetPoint" />
          </mxGeometry>
        </mxCell>
        <mxCell id="mAFuOGpr3jhFEgYjjZ75-1" value="هل تعانى من اى عرض من تلك الاعراض المزمنة؟&lt;br&gt;السكر , السمنة , السكر , الكبد , امراض القلب , االكلى , الكبد" style="rounded=0;whiteSpace=wrap;html=1;" vertex="1" parent="WIyWlLk6GJQsqaUBKTNV-1">
          <mxGeometry x="127.5" y="1160" width="214.99" height="70" as="geometry" />
        </mxCell>
        <mxCell id="mAFuOGpr3jhFEgYjjZ75-4" style="edgeStyle=orthogonalEdgeStyle;rounded=0;orthogonalLoop=1;jettySize=auto;html=1;" edge="1" parent="WIyWlLk6GJQsqaUBKTNV-1" source="mAFuOGpr3jhFEgYjjZ75-3" target="mAFuOGpr3jhFEgYjjZ75-5">
          <mxGeometry relative="1" as="geometry">
            <mxPoint x="234.98500000000013" y="1420" as="targetPoint" />
          </mxGeometry>
        </mxCell>
        <mxCell id="mAFuOGpr3jhFEgYjjZ75-3" value="اختر الجملة الاكثر ملائمة لاسلوب حياتك؟&lt;br&gt;بتقضى وقت كبير فى البيت , تعمل فى مهنة طبية مثل مستشفى مركز طبى عيادة , بتتعامل مع جمهور كبير مثل المدارس والتجمعات&amp;nbsp;" style="rounded=0;whiteSpace=wrap;html=1;" vertex="1" parent="WIyWlLk6GJQsqaUBKTNV-1">
          <mxGeometry x="127.48000000000002" y="1270" width="215.01" height="90" as="geometry" />
        </mxCell>
        <mxCell id="mAFuOGpr3jhFEgYjjZ75-6" style="edgeStyle=orthogonalEdgeStyle;rounded=0;orthogonalLoop=1;jettySize=auto;html=1;" edge="1" parent="WIyWlLk6GJQsqaUBKTNV-1" source="mAFuOGpr3jhFEgYjjZ75-5" target="mAFuOGpr3jhFEgYjjZ75-7">
          <mxGeometry relative="1" as="geometry">
            <mxPoint x="235.0050000000001" y="1510" as="targetPoint" />
          </mxGeometry>
        </mxCell>
        <mxCell id="mAFuOGpr3jhFEgYjjZ75-5" value="هل تعاملت عن قرب مع اشخاص ثبتت اصابتهم بكوفيد 19؟&lt;br&gt;" style="rounded=0;whiteSpace=wrap;html=1;" vertex="1" parent="WIyWlLk6GJQsqaUBKTNV-1">
          <mxGeometry x="167.5" y="1390" width="135.01" height="60" as="geometry" />
        </mxCell>
        <mxCell id="mAFuOGpr3jhFEgYjjZ75-8" style="edgeStyle=orthogonalEdgeStyle;rounded=0;orthogonalLoop=1;jettySize=auto;html=1;" edge="1" parent="WIyWlLk6GJQsqaUBKTNV-1" source="mAFuOGpr3jhFEgYjjZ75-7" target="mAFuOGpr3jhFEgYjjZ75-9">
          <mxGeometry relative="1" as="geometry">
            <mxPoint x="235.0050000000001" y="1620" as="targetPoint" />
          </mxGeometry>
        </mxCell>
        <mxCell id="mAFuOGpr3jhFEgYjjZ75-7" value="هل سافرت خارج البلاد خلال ال 14 يوما الماضية؟&lt;br&gt;" style="rounded=0;whiteSpace=wrap;html=1;" vertex="1" parent="WIyWlLk6GJQsqaUBKTNV-1">
          <mxGeometry x="175.0050000000001" y="1480" width="120" height="60" as="geometry" />
        </mxCell>
        <mxCell id="mAFuOGpr3jhFEgYjjZ75-9" value="ما مدى شدة الاعراض الموجوده لديك؟" style="rounded=0;whiteSpace=wrap;html=1;" vertex="1" parent="WIyWlLk6GJQsqaUBKTNV-1">
          <mxGeometry x="175.0050000000001" y="1590" width="120" height="60" as="geometry" />
        </mxCell>
      </root>
    </mxGraphModel>
  </diagram>
  <diagram id="4ePO9Y_vWO-0FB4c1kjW" name="Page-2">
    <mxGraphModel dx="5987" dy="2867" grid="1" gridSize="10" guides="1" tooltips="1" connect="1" arrows="1" fold="1" page="1" pageScale="1" pageWidth="850" pageHeight="1100" math="0" shadow="0">
      <root>
        <mxCell id="6t13bW3SZNHiqsNYivuW-0" />
        <mxCell id="6t13bW3SZNHiqsNYivuW-1" parent="6t13bW3SZNHiqsNYivuW-0" />
      </root>
    </mxGraphModel>
  </diagram>
</mxfile>
